# xmcd CD database file
#
# Track frame offsets:
#	150
#	21073
#	42326
#	50152
#	73859
#	105969
#	126980
#	146940
#	167913
#	184955
#
# Disc length: 2831 seconds
#
# Revision: 0
# Processed by: cddbd v1.5.2PL0 Copyright (c) Steve Scherf et al.
# Submitted via: CDex 1.70beta2
#
DISCID=980b0d0a
DTITLE=Kenny Drew Trio - Portrait-Oboe Concerto
DYEAR=1900
DGENRE=Jazz
TTITLE0=More
TTITLE1=When You Wish Upon A Star
TTITLE2=Oboe Concerto In D Minor
TTITLE3=The Way We Were
TTITLE4=Autumn Leaves
TTITLE5=Moonlight Sonata
TTITLE6=Dream
TTITLE7=My Funny Valentine
TTITLE8=Blues In Green
TTITLE9=Angel Eyes
EXTD=
EXTT0=
EXTT1=
EXTT2=
EXTT3=
EXTT4=
EXTT5=
EXTT6=
EXTT7=
EXTT8=
EXTT9=
PLAYORDER=
